<?xml version="1.0" encoding="utf-8"?>
<!-- Generator: Adobe Illustrator 16.0.0, SVG Export Plug-In . SVG Version: 6.00 Build 0)  -->
<!DOCTYPE svg PUBLIC "-//W3C//DTD SVG 1.1//EN" "http://www.w3.org/Graphics/SVG/1.1/DTD/svg11.dtd">
<svg version="1.1" id="Layer_1" xmlns="http://www.w3.org/2000/svg" xmlns:xlink="http://www.w3.org/1999/xlink" x="0px" y="0px"
	 width="45.667px" height="45.667px" viewBox="0 0 45.667 45.667" enable-background="new 0 0 45.667 45.667" xml:space="preserve">
<g id="XMLID_1_">
	<g>
		<g>
			<path fill="#D6E1E8" d="M22.833,39.743c9.356,0,16.94-7.553,16.94-16.871c0-9.317-7.584-16.87-16.94-16.87
				c-9.356,0-16.94,7.553-16.94,16.87C5.893,32.19,13.477,39.743,22.833,39.743z M22.833,0.747c12.215,0,22.125,9.903,22.125,22.125
				c0,12.223-9.91,22.125-22.125,22.125c-12.226,0-22.125-9.902-22.125-22.125C0.708,10.65,10.607,0.747,22.833,0.747z"/>
		</g>
	</g>
	<g>
		<g>
			<path fill="#D6E1E8" d="M22.833,39.743c9.356,0,16.94-7.553,16.94-16.871c0-9.317-7.584-16.87-16.94-16.87
				c-9.356,0-16.94,7.553-16.94,16.87C5.893,32.19,13.477,39.743,22.833,39.743z M22.833,0.747c12.215,0,22.125,9.903,22.125,22.125
				c0,12.223-9.91,22.125-22.125,22.125c-12.226,0-22.125-9.902-22.125-22.125C0.708,10.65,10.607,0.747,22.833,0.747z"/>
		</g>
	</g>
</g>
<g id="XMLID_3_">
	<g>
		<polygon fill="#D6E1E8" points="25.206,15.487 25.206,30.26 17.456,22.854 25.175,15.487 		"/>
	</g>
	<g>
	</g>
</g>
</svg>
