<?xml version="1.0" encoding="utf-8"?>
<!-- Generator: Adobe Illustrator 16.0.0, SVG Export Plug-In . SVG Version: 6.00 Build 0)  -->
<!DOCTYPE svg PUBLIC "-//W3C//DTD SVG 1.1//EN" "http://www.w3.org/Graphics/SVG/1.1/DTD/svg11.dtd">
<svg version="1.1" id="Layer_1" xmlns="http://www.w3.org/2000/svg" xmlns:xlink="http://www.w3.org/1999/xlink" x="0px" y="0px"
	 width="45.667px" height="45.667px" viewBox="0 0 45.667 45.667" enable-background="new 0 0 45.667 45.667" xml:space="preserve">
<g id="XMLID_1_">
	<g>
		<g>
			<path fill="#D6E1E8" d="M22.836,6.001c9.356,0,16.94,7.553,16.94,16.87c0,9.318-7.584,16.871-16.94,16.871
				c-9.356,0-16.94-7.553-16.94-16.871C5.896,13.554,13.479,6.001,22.836,6.001z M22.836,44.997
				c12.226,0,22.125-9.902,22.125-22.125c0-12.222-9.899-22.125-22.125-22.125c-12.215,0-22.125,9.903-22.125,22.125
				C0.711,35.094,10.621,44.997,22.836,44.997z"/>
		</g>
	</g>
	<g>
		<g>
			<path fill="#D6E1E8" d="M22.836,6.001c9.356,0,16.94,7.553,16.94,16.87c0,9.318-7.584,16.871-16.94,16.871
				c-9.356,0-16.94-7.553-16.94-16.871C5.896,13.554,13.479,6.001,22.836,6.001z M22.836,44.997
				c12.226,0,22.125-9.902,22.125-22.125c0-12.222-9.899-22.125-22.125-22.125c-12.215,0-22.125,9.903-22.125,22.125
				C0.711,35.094,10.621,44.997,22.836,44.997z"/>
		</g>
	</g>
</g>
<g id="XMLID_3_">
	<g>
		<polygon fill="#D6E1E8" points="28.213,22.854 20.494,15.487 20.463,15.487 20.463,30.26 		"/>
	</g>
	<g>
	</g>
</g>
</svg>
