<?xml version="1.0" encoding="utf-8"?>
<!-- Generator: Adobe Illustrator 16.0.0, SVG Export Plug-In . SVG Version: 6.00 Build 0)  -->
<!DOCTYPE svg PUBLIC "-//W3C//DTD SVG 1.1//EN" "http://www.w3.org/Graphics/SVG/1.1/DTD/svg11.dtd">
<svg version="1.1" id="Layer_1" xmlns="http://www.w3.org/2000/svg" xmlns:xlink="http://www.w3.org/1999/xlink" x="0px" y="0px"
	 width="155.16px" height="144px" viewBox="0 0 155.16 144" enable-background="new 0 0 155.16 144" xml:space="preserve">
<g>
	<g>
		<path fill="#EAF1F6" d="M133.343,0H10.629C4.765,0,0,4.648,0,10.379v123.23C0,139.345,4.765,144,10.629,144h122.714
			c5.874,0,10.659-4.655,10.659-10.391V10.379C144.002,4.648,139.217,0,133.343,0z M42.709,122.707H21.35V53.986h21.359V122.707z
			 M32.034,44.592c-6.846,0-12.387-5.55-12.387-12.387c0-6.83,5.541-12.379,12.387-12.379c6.828,0,12.377,5.549,12.377,12.379
			C44.411,39.042,38.862,44.592,32.034,44.592z M122.706,122.707h-21.344V89.288c0-7.973-0.146-18.223-11.099-18.223
			c-11.114,0-12.816,8.682-12.816,17.646v33.996H56.104V53.986h20.488v9.389h0.284c2.85-5.403,9.817-11.1,20.208-11.1
			c21.628,0,25.621,14.233,25.621,32.736V122.707z"/>
	</g>
	<g>
		<path fill="#EAF1F6" d="M151.939,119.989c0.681-0.084,1.036-0.458,1.036-1.089c0-0.77-0.464-1.143-1.42-1.143h-1.54v4.043h0.579
			v-1.76h0.715l0.017,0.021l1.106,1.739h0.62l-1.19-1.802L151.939,119.989z M151.269,119.584h-0.674v-1.366h0.854
			c0.44,0,0.945,0.072,0.945,0.649C152.395,119.531,151.886,119.584,151.269,119.584z"/>
		<path fill="#EAF1F6" d="M151.335,115.96c-2.147,0-3.83,1.681-3.83,3.823c0,2.147,1.683,3.824,3.83,3.824
			c2.146,0,3.825-1.677,3.825-3.824C155.16,117.641,153.48,115.96,151.335,115.96z M151.335,123.107
			c-1.832,0-3.267-1.445-3.267-3.324c0-1.874,1.435-3.32,3.267-3.32c1.83,0,3.265,1.446,3.265,3.32
			C154.6,121.662,153.165,123.107,151.335,123.107z"/>
	</g>
</g>
</svg>
