<?xml version="1.0" encoding="utf-8"?>
<!-- Generator: Adobe Illustrator 19.2.0, SVG Export Plug-In . SVG Version: 6.00 Build 0)  -->
<svg version="1.1" id="Layer_1" xmlns="http://www.w3.org/2000/svg" xmlns:xlink="http://www.w3.org/1999/xlink" x="0px" y="0px"
	 viewBox="0 0 310.3 114.2" enable-background="new 0 0 310.3 114.2" xml:space="preserve">
<g>
	<g>
		<g>
			<path fill="#8BA7B8" d="M0,86.7h3.6L25,108.4V86.7h3.7v27.1h-3.1L3.7,91.5v22.2H0V86.7z"/>
			<path fill="#8BA7B8" d="M46.8,86.7h24.5v2.8H50.6v9.2h18.5v2.8H50.6v9.5h21v2.8H46.8V86.7z"/>
			<path fill="#8BA7B8" d="M96.8,89.5H85.4v-2.8H112v2.8h-11.4v24.3h-3.9V89.5z"/>
			<path fill="#8BA7B8" d="M125.1,86.7h4.2l9.7,22.6l9.3-22.6h3.2l9.3,22.6l9.7-22.6h4l-12.1,27.3h-3.2l-9.3-22l-9.4,22h-3.2
				L125.1,86.7z"/>
			<path fill="#8BA7B8" d="M186.7,100.3L186.7,100.3c0-7.5,7-14.1,17.4-14.1c10.3,0,17.3,6.5,17.3,13.9c0,0,0,0,0,0.1
				c0,7.5-7,14-17.4,14C193.6,114.2,186.7,107.8,186.7,100.3z M217.3,100.3L217.3,100.3c0-6.2-5.6-11.3-13.4-11.3s-13.3,5-13.3,11.1
				v0.1c0,6.2,5.6,11.2,13.4,11.2S217.3,106.4,217.3,100.3z"/>
			<path fill="#8BA7B8" d="M237.9,86.7h14.6c4.2,0,7.5,1,9.7,2.7c1.6,1.3,2.6,3.2,2.6,5.3v0.1c0,4.5-3.9,7.1-9.2,7.9l10.4,11.1h-4.7
				l-9.8-10.5h-0.1h-9.6v10.5h-3.8V86.7z M252.1,100.5c5.1,0,8.7-2.1,8.7-5.6v-0.1c0-3.3-3.2-5.3-8.7-5.3h-10.5v11H252.1z"/>
			<path fill="#8BA7B8" d="M281.4,86.7h3.8v16.2l19.5-16.2h4.9l-14.5,11.8l15.2,15.2h-4.8l-13-13.1l-7.2,5.8v7.3h-3.8V86.7z"/>
		</g>
		<g>
			
				<linearGradient id="SVGID_1_" gradientUnits="userSpaceOnUse" x1="-93.1181" y1="73.8168" x2="33.49" y2="73.8168" gradientTransform="matrix(-1 0 0 1 33.49 0)">
				<stop  offset="0" style="stop-color:#BCCCD9"/>
				<stop  offset="0.5" style="stop-color:#BCCCD9"/>
			</linearGradient>
			<path fill="url(#SVGID_1_)" d="M1.5,71.1h125.1v0.5c0,0-0.6,0.3-0.6,1.4v1.8c0,1.1,0.6,1.4,0.6,1.4v0.5H1.5C0.7,76.6,0,75.9,0,75
				l0-2.4C0,71.8,0.7,71.1,1.5,71.1z"/>
			
				<linearGradient id="SVGID_2_" gradientUnits="userSpaceOnUse" x1="-264.1296" y1="221.2624" x2="-111.9793" y2="221.2624" gradientTransform="matrix(1 -1.846131e-03 -1.846131e-03 -1 421.6063 294.5779)">
				<stop  offset="0" style="stop-color:#BCCCD9"/>
				<stop  offset="0.5" style="stop-color:#BCCCD9"/>
			</linearGradient>
			<path fill="url(#SVGID_2_)" d="M307.7,76.3l-150.6,0.3l0-0.5c0,0,0.6-0.3,0.6-1.4l0-1.8c0-1.1-0.6-1.4-0.6-1.4l0-0.5l150.6-0.3
				c0.8,0,1.5,0.7,1.5,1.5l0,2.4C309.2,75.6,308.5,76.3,307.7,76.3z"/>
		</g>
		<g>
			<path fill="#006FAC" d="M55.5,61.8C32,61.9,23.9,56.5,23.9,31c0-25.5,8.1-31,31.5-31c9.9,0,19.2,1.5,22.8,2.2
				c1,0.2,1.6,1,1.4,1.9L78.8,9c-0.2,0.9-1.1,1.6-2.2,1.4C73,9.8,64.4,8.5,56.6,8.5c-20,0-22,4.2-22,22.5c0,17.5,2,22.6,21.8,22.6
				c7.9,0,16.7-1.2,20.4-1.8c1-0.2,2,0.5,2.1,1.4l0.8,4.5c0.2,0.9-0.5,1.7-1.4,1.9C74.6,60.2,65.3,61.8,55.5,61.8z"/>
			<path fill="#006FAC" d="M0,60l0-3.3c0-0.6,0.5-1.1,1.1-1.3l3.3-0.6c1.1-0.2,1.4-0.5,1.4-1.6l0-26.1c0-1.2-0.3-1.5-1.4-1.6
				l-3.3-0.6C0.5,24.7,0,24.2,0,23.6l0-3.3C0,19.6,0.6,19,1.4,19l12.9,0c0.8,0,1.4,0.6,1.4,1.3l0.1,32.8c0,1.2,0.2,1.5,1.4,1.6
				l3.2,0.6c0.7,0.1,1.1,0.7,1.1,1.3l0,3.3c0,0.7-0.6,1.3-1.4,1.3l-18.6,0C0.7,61.3,0,60.7,0,60z"/>
			<path fill="#006FAC" d="M183.7,59.6l0-3.3c0-0.6,0.5-1.1,1.1-1.3l3.3-0.6c1.1-0.2,1.4-0.5,1.4-1.6l0-26.1c0-1.2-0.3-1.5-1.4-1.6
				l-3.3-0.6c-0.7-0.1-1.1-0.7-1.1-1.3l0-3.3c0-0.7,0.6-1.3,1.4-1.3l12.9,0c0.8,0,1.4,0.6,1.4,1.3l0.1,32.8c0,1.2,0.2,1.5,1.4,1.6
				L204,55c0.7,0.1,1.1,0.7,1.1,1.3l0,3.3c0,0.7-0.6,1.3-1.4,1.3l-18.6,0C184.4,60.9,183.7,60.3,183.7,59.6z"/>
			<path fill="#006FAC" d="M308.9,55.3c-0.2-0.2-0.5-0.4-0.8-0.4l0,0c0,0,0,0,0,0l-3.2-0.6c-1.2-0.2-1.4-0.5-1.4-1.6l0,0v0
				l-0.1-49.9c0-0.7-0.6-1.3-1.4-1.3l-12.9,0c-0.8,0-1.4,0.6-1.4,1.3l0,3.3c0,0.6,0.5,1.1,1.1,1.3l3.3,0.6c1.1,0.2,1.4,0.5,1.4,1.6
				l0.1,41.2c0,1.9-1.2,3.4-3.2,3.5c-0.3,0,0.3,0-0.1,0c0,0-2.4,0-2.4,0c-0.4,0,0.2,0-0.1,0c-2.1-0.1-3.2-1.7-3.2-3.5l0-19.6
				c0-5.7-1.8-9-5.7-10.9c-3.5-1.7-8.8-2.3-15.9-2.3c-9.7,0-17.3,1.4-20.2,2c-0.7,0.2-1.2,0.8-1.1,1.5l0.9,4.3
				c0.1,0.7,0.9,1.2,1.7,1c2.9-0.6,10-1.7,17.2-1.8c4.1,0,7.1,0.2,9.2,1c3,1.1,4.1,3.2,4,6.7c0,0.8-0.7,1.5-1.6,1.5L255,34.4
				c-12.7,0.2-16.5,3.3-16.5,13.4c0,10.7,4.3,13.6,19.2,13.6c2.4,0,6-0.2,7.8-0.3c0.7,0,1.4-0.2,2.1-0.5c1.8-0.8,5.6-2.3,6.5-2.5
				c1-0.1,1.4,0.4,1.7,1.1c0.1,0.2,0.1,0.3,0.1,0.5c0.1,0.6,0.7,1.1,1.4,1.1l9,0l2.4,0l0,0l0.5,0l0,0l18.6,0c0.8,0,1.4-0.6,1.4-1.3
				l0-3.3C309.2,55.8,309.1,55.5,308.9,55.3z M274.5,51.6c0,0.6-0.5,1.1-1.1,1.3c-2.6,0.4-9.1,1.4-14.8,1.5c-7.1,0-10-0.3-10-6.5
				c0-7.5,3.6-6.7,10.6-6.8l13.9-0.3c0.8,0,1.4,0.6,1.4,1.3L274.5,51.6z"/>
			<path fill="#006FAC" d="M227.2,61.2c-12.2,0-13.7-4.2-13.7-14l0-20.5c0-0.7-0.6-1.3-1.4-1.3l-6.8,0c-0.8,0-1.4-0.6-1.4-1.3l0-4.3
				c0-0.7,0.6-1.3,1.4-1.3l6.8,0c0.8,0,1.4-0.6,1.4-1.3l0-8.7c0-0.7,0.6-1.3,1.4-1.3l7.1,0c0.8,0,1.4,0.6,1.4,1.3l0,8.7
				c0,0.7,0.6,1.3,1.4,1.3l11,0c0.8,0,1.4,0.6,1.4,1.3l0,4.3c0,0.7-0.6,1.3-1.4,1.3l-11,0c-0.8,0-1.4,0.6-1.4,1.3l0,21.9
				c0,4.7,0.6,6,6.3,6c1.4,0,3.7-0.3,5.2-0.5c0.8-0.1,1.5,0.4,1.6,1.1l0.6,3.7c0.1,0.6-0.4,1.2-1,1.4
				C234.2,60.6,230.8,61.2,227.2,61.2z"/>
			<path fill="#006FAC" d="M120.8,61c-0.7,0-1.4-0.4-1.5-1.1c-0.2-0.8-0.7-1.7-1.9-1.5c-1,0.1-4.7,1.7-6.5,2.5
				c-0.7,0.3-1.4,0.5-2.1,0.5c-1.8,0.1-5.4,0.3-7.8,0.3c-14.8,0-19.1-2.9-19.2-13.6c0-10.1,3.8-13.2,16.5-13.4l17.5-0.2
				c1.5,0,1.9-0.6,2-1.8c0-3.3-1.1-5.3-4-6.3c-2.1-0.8-5.1-1-9.2-1c-7.1,0-14.2,1.2-17.1,1.7c-0.8,0.2-1.6-0.3-1.8-1.1l-0.9-4.1
				c-0.2-0.7,0.3-1.4,1.1-1.6c3-0.6,10.5-2,20.1-2c7.1,0,12.4,0.6,15.9,2.3c3.9,1.9,5.7,5.2,5.7,10.9l0,21.4c0,1.2,0.2,1.5,1.4,1.6
				l3.1,0.6c0.7,0.1,1.2,0.7,1.2,1.3l0,3.1c0,0.8-0.7,1.4-1.5,1.4L120.8,61z M117.9,42.4c0-0.8-0.7-1.4-1.5-1.4l-13.8,0.3
				c-7,0.1-10.6-0.7-10.6,6.8c0,6.2,2.9,6.5,10,6.5c5.6,0,12-1,14.7-1.4c0.7-0.1,1.2-0.7,1.2-1.4L117.9,42.4z"/>
			<path fill="#006FAC" d="M161.8,18.4c-1.4,0-3.2,0-4.4,0.1c-2,0.1-3.4,0.3-4.4,0.7l-3.3,1.3c-1,0.4-2.7,1.1-3.6,1.1
				c-1,0-1.5-1.7-1.5-1.7c-0.3-0.6-0.7-0.9-1.7-0.9l-10.5,0c-0.6,0-1.3,0.5-1.3,1.3l0,3.3c0,0.6,0.5,1.2,1.2,1.3l3.2,0.6
				c1.1,0.2,1.4,0.4,1.4,1.6l0.1,41.4h0l0,0c0,1.2-0.3,1.5-1.4,1.6l-3.3,0.6c-0.7,0.1-1.1,0.7-1.1,1.3l0,3.3c0,0.7,0.6,1.3,1.4,1.3
				l18.6,0c0.8,0,1.4-0.6,1.4-1.3l0-3.3c0-0.6-0.5-1.1-1.1-1.3l-3.2-0.6c-1.2-0.2-1.4-0.5-1.4-1.6l0,0h0l0-7.1
				c0-0.6,0.6-1.1,1.3-0.9c2.2,0.5,6.8,1.3,11.7,1.3c17.7,0,21.6-6.3,21.6-21.9C181.3,24.3,177.5,18.4,161.8,18.4z M159,54.6
				c-4.7,0-8.8-0.4-10.8-0.7c-0.8-0.1-1.4-0.7-1.4-1.4l0-24.5c0-0.7,0.6-1.4,1.4-1.5c2.2-0.3,6.7-1,11-1c9.9,0,12,2.8,12,14.4
				C171.3,52.2,169.1,54.6,159,54.6z"/>
			<path fill="#006FAC" d="M187.2,10.7l0-7.9c0-0.7,0.6-1.3,1.4-1.3l9.3,0c0.8,0,1.4,0.6,1.4,1.3l0,7.9c0,0.7-0.6,1.3-1.4,1.3
				l-9.3,0C187.9,12,187.2,11.4,187.2,10.7z"/>
			<path fill="#006FAC" d="M3.6,10.7l0-7.9C3.6,2,4.2,1.5,5,1.5l9.3,0c0.8,0,1.4,0.6,1.4,1.3l0,7.9c0,0.7-0.6,1.3-1.4,1.3L5,12
				C4.2,12,3.6,11.4,3.6,10.7z"/>
		</g>
	</g>
</g>
</svg>
